<?xml version="1.0" encoding="iso-8859-1"?>
<!-- Generator: Adobe Illustrator 19.0.0, SVG Export Plug-In . SVG Version: 6.00 Build 0)  -->
<svg fill="red" version="1.1" id="Layer_1" xmlns="http://www.w3.org/2000/svg" xmlns:xlink="http://www.w3.org/1999/xlink" x="0px" y="0px" viewBox="0 0 512 512" style="enable-background:new 0 0 512 512;" xml:space="preserve">
	<g transform="translate(1 1)">
		<g>
			<g>
				<path d="M255-1C114.2-1-1,114.2-1,255s115.2,256,256,256s256-115.2,256-256S395.8-1,255-1z M255,493.933
				c-131.413,0-238.933-107.52-238.933-238.933S123.587,16.067,255,16.067S493.933,123.587,493.933,255S386.413,493.933,255,493.933
				z" />
				<path d="M255,195.267c-33.28,0-59.733,26.453-59.733,59.733c0,33.28,26.453,59.733,59.733,59.733
				c33.28,0,59.733-26.453,59.733-59.733C314.733,221.72,288.28,195.267,255,195.267z M255,297.667
				c-23.893,0-42.667-18.773-42.667-42.667c0-23.893,18.773-42.667,42.667-42.667c23.893,0,42.667,18.773,42.667,42.667
				C297.667,278.893,278.893,297.667,255,297.667z" />
				<path d="M474.307,290.84c1.707-11.947,2.56-23.893,2.56-35.84s-0.853-23.893-2.56-35.84c-0.146-0.584-0.372-1.167-0.66-1.735
				c-5.704-33.082-18.792-63.719-37.502-90.133c-0.251-0.689-0.611-1.359-1.091-1.999c-14.507-19.627-30.72-36.693-50.347-50.347
				c-0.589-0.442-1.231-0.775-1.9-1.023c-26.676-18.917-57.666-32.094-91.134-37.721c-0.528-0.215-1.088-0.39-1.686-0.509
				c-9.502-1.408-19.151-2.225-28.884-2.472c-0.237-0.006-0.473-0.014-0.71-0.019c-1.71-0.038-3.421-0.063-5.136-0.066
				c-0.086,0-0.171-0.003-0.256-0.003c-0.015,0-0.029,0.001-0.044,0.001c-11.86-0.003-23.828,0.85-35.796,2.559
				c-0.584,0.146-1.167,0.372-1.735,0.66c-33.082,5.704-63.719,18.792-90.133,37.502c-0.689,0.251-1.359,0.611-1.999,1.091
				c-19.627,14.507-36.693,30.72-50.347,50.347c-0.442,0.589-0.775,1.231-1.023,1.9c-18.656,26.308-31.735,56.811-37.49,89.749
				c-0.33,0.675-0.58,1.416-0.741,2.218c-1.707,11.947-2.56,23.893-2.56,35.84s0.853,23.893,2.56,35.84
				c0.146,0.584,0.372,1.167,0.66,1.735c5.704,33.082,18.792,63.719,37.502,90.133c0.251,0.689,0.611,1.359,1.091,1.999
				c14.507,19.627,30.72,36.693,50.347,50.347c0.589,0.442,1.231,0.775,1.9,1.023c26.308,18.656,56.811,31.735,89.749,37.49
				c0.675,0.33,1.416,0.58,2.218,0.741c11.947,1.707,23.893,2.56,35.84,2.56s23.893-0.853,35.84-2.56
				c0.584-0.146,1.167-0.372,1.735-0.66c33.082-5.704,63.719-18.792,90.133-37.502c0.689-0.251,1.359-0.611,1.999-1.091
				c19.627-14.507,36.693-30.72,50.347-50.347c0.442-0.589,0.775-1.231,1.023-1.9c18.656-26.308,31.735-56.811,37.49-89.749
				C473.896,292.382,474.146,291.641,474.307,290.84z M426.863,366.021l-11.88-12.294c10.402-17.565,17.999-36.251,22.791-56.06
				h17.51C449.998,322.367,440.226,345.452,426.863,366.021z M380.128,416.831L362.22,399.46c-0.378-0.722-0.841-1.388-1.407-1.953
				l-25.6-24.747c-0.546-0.546-1.173-0.969-1.849-1.29l-38.258-37.11c-2.56-2.56-5.973-3.413-9.387-1.707
				c-3.413,0.853-5.12,4.267-5.12,7.68V395.8v34.987v27.307c-1.649,0.247-3.299,0.464-4.948,0.663
				c-6.794,0.688-13.684,1.044-20.652,1.044c-6.968,0-13.857-0.355-20.651-1.044c-1.65-0.2-3.299-0.416-4.949-0.663V431.64v-34.987
				v-56.32c0-3.413-1.707-5.973-5.12-7.68s-6.827-0.853-9.387,1.707l-85.021,82.471c-13.717-10.645-26.058-22.985-36.703-36.703
				l17.329-17.865c0.719-0.385,1.408-0.863,1.995-1.449l24.747-25.6c0.546-0.546,0.969-1.173,1.29-1.849l37.11-38.258
				c2.56-2.56,3.413-5.973,1.707-9.387c-0.853-3.413-4.267-5.12-7.68-5.12H114.2H79.213H51.907
				c-0.743-7.427-1.484-14.854-1.664-22.281c-0.018-1.106-0.042-2.21-0.042-3.319s0.025-2.214,0.042-3.319
				c0.18-7.427,0.922-14.854,1.664-22.281h27.307H114.2h55.467c3.413,0,6.827-1.707,7.68-5.12c1.707-3.413,0.853-6.827-1.707-9.387
				l-82.471-85.021c10.645-13.717,22.985-26.058,36.703-36.703l85.021,82.471c2.56,2.56,5.973,3.413,9.387,1.707
				c3.413-0.853,5.12-4.267,5.12-7.68V114.2V79.213V51.907c1.649-0.247,3.298-0.463,4.947-0.663
				C241.142,50.555,248.031,50.2,255,50.2c6.969,0,13.859,0.355,20.654,1.044c1.649,0.2,3.298,0.416,4.946,0.663v27.307V114.2
				v55.467c0,3.413,1.707,6.827,5.12,7.68c3.413,1.707,6.827,0.853,9.387-1.707l85.021-82.471
				c13.717,10.645,26.058,22.985,36.703,36.703L399.46,147.78c-0.722,0.378-1.388,0.841-1.953,1.407l-24.747,25.6
				c-0.546,0.546-0.969,1.173-1.29,1.849l-37.11,38.258c-2.56,2.56-3.413,5.973-1.707,9.387c0.853,3.413,4.267,5.12,7.68,5.12H395.8
				h34.987h27.307c0.743,7.428,1.484,14.856,1.664,22.284c0.017,1.078,0.041,2.155,0.041,3.238c0,0.026,0.001,0.052,0.001,0.079
				c0,0.026-0.001,0.051-0.001,0.077c0,1.083-0.024,2.161-0.041,3.24c-0.18,7.428-0.922,14.856-1.664,22.284h-27.307H395.8h-55.467
				c-3.413,0-5.973,1.707-7.68,5.12s-0.853,6.827,1.707,9.387l36.9,38.041c0.392,0.76,0.896,1.462,1.5,2.066l24.747,25.6
				c0.723,0.723,1.45,1.283,2.238,1.7l17.086,17.615C406.186,393.845,393.845,406.186,380.128,416.831z M341.028,402.713
				c-13.607,7.637-28.06,13.584-43.361,17.834v-17.92c10.086-3.362,20.173-7.556,30.259-12.574L341.028,402.713z M297.667,384.327
				v-23.514l17.185,16.606C309.394,380.069,303.647,382.382,297.667,384.327z M297.667,437.117
				c19.676-4.283,38.649-12.238,55.612-22.566l12.742,12.312c-20.569,13.362-43.654,23.134-68.354,28.422V437.117z M182.051,390.075
				c10.094,5.817,20.188,9.187,30.283,12.552v17.92c-15.301-4.25-29.754-10.196-43.361-17.834L182.051,390.075z M212.333,385.01
				c-5.95-2.02-11.849-4.412-17.613-7.177l17.613-17.019V385.01z M156.273,414.984c17.565,10.402,36.251,17.999,56.06,22.791v17.51
				c-24.7-5.288-47.786-15.06-68.354-28.422L156.273,414.984z M54.715,297.667h18.168c4.283,19.676,12.238,38.649,22.566,55.612
				l-12.312,12.742C69.774,345.452,60.002,322.367,54.715,297.667z M132.58,314.852c-2.65-5.459-4.962-11.205-6.908-17.186h23.514
				L132.58,314.852z M119.936,327.938l-12.649,13.09c-7.637-13.607-13.584-28.06-17.834-43.361h17.92
				C110.733,308.585,114.923,318.672,119.936,327.938z M83.137,143.979l11.88,12.294c-10.402,17.565-17.999,36.251-22.791,56.06
				h-17.51C60.002,187.633,69.774,164.548,83.137,143.979z M119.925,182.051c-5.817,10.094-9.187,20.188-12.552,30.283h-17.92
				c4.25-15.301,10.196-29.754,17.834-43.361L119.925,182.051z M132.167,194.72l17.019,17.613H124.99
				C127.01,206.383,129.402,200.484,132.167,194.72z M168.972,107.287c13.607-7.637,28.06-13.584,43.361-17.834v17.92
				c-10.918,3.359-21.006,7.55-30.271,12.563L168.972,107.287z M212.333,125.673v23.514l-17.186-16.606
				C200.606,129.931,206.353,127.618,212.333,125.673z M212.333,72.029c-19.886,4.329-39.052,12.41-56.152,22.899l-12.202-11.791
				c20.569-13.362,43.654-23.134,68.354-28.422V72.029z M296.813,125.55c5.883,1.961,11.715,4.299,17.425,6.987l-17.425,16.65
				V125.55z M327.627,119.742c-9.987-5.704-19.974-9.04-29.961-12.369v-17.92c15.214,4.226,29.588,10.132,43.128,17.707
				L327.627,119.742z M353.589,94.934c-17.777-10.51-36.702-18.15-56.776-22.916v-17.49c25.002,5.24,48.364,15.076,69.157,28.576
				L353.589,94.934z M377.42,195.148c2.65,5.459,4.962,11.205,6.908,17.185h-23.514L377.42,195.148z M390.052,182.074l12.661-13.102
				c7.637,13.607,13.584,28.06,17.834,43.361h-17.92C399.265,202.247,395.07,192.161,390.052,182.074z M360.813,297.667h23.343
				c-1.951,5.746-4.255,11.442-6.9,17.017L360.813,297.667z M390.052,327.926c5.018-10.086,9.212-20.173,12.574-30.259h17.92
				c-4.25,15.301-10.196,29.754-17.834,43.361L390.052,327.926z M437.118,212.333c-4.283-19.676-12.238-38.649-22.566-55.612
				l12.312-12.742c13.362,20.569,23.134,43.654,28.422,68.354H437.118z" />
			</g>
		</g>
	</g>
	<g></g>
	<g></g>
	<g></g>
	<g></g>
	<g></g>
	<g></g>
	<g></g>
	<g></g>
	<g></g>
	<g></g>
	<g></g>
	<g></g>
	<g></g>
	<g></g>
	<g></g>
</svg>